<svg width="40" height="40" viewBox="0 0 40 40" fill="none" xmlns="http://www.w3.org/2000/svg">
<path d="M37.7346 34.1285V11.5256C37.7346 10.1763 36.6599 9.01408 35.3108 9.01408H26.467V5.117C26.467 3.7677 25.3786 2.62911 24.0295 2.62911H23.4623V2.11962C23.4623 0.977465 22.5125 0 21.3703 0H7.26216C6.12 0 5.05878 0.977465 5.05878 2.11962V2.62911H4.603C3.25371 2.62911 2.05408 3.7677 2.05408 5.117V34.1285C0.927324 34.5117 0 35.6518 0 36.9953C0 38.652 1.39887 40 3.05559 40H36.8584C38.5151 40 39.8516 38.652 39.8516 36.9953C39.8515 35.6518 38.8614 34.5117 37.7346 34.1285ZM17.6408 36.8075H10.8802V30.6103H17.6408V36.8075ZM23.0868 25.9155H5.43418V22.5352H23.0868V25.9155ZM23.0868 18.216H5.43418V14.8357H23.0868V18.216ZM23.0868 10.5164H5.43418V7.13615H23.0868V10.5164ZM34.5422 25.9155H27.9694V22.5352H34.5422V25.9155ZM34.5422 18.216H27.9694V14.8357H34.5422V18.216Z" fill="#5695CB"/>
</svg>
