<svg width="73" height="80" viewBox="0 0 73 80" fill="none" xmlns="http://www.w3.org/2000/svg">
<path d="M72.3738 53.263L64.2851 37.9014C63.8943 37.1594 63.1709 36.7071 62.3945 36.6292C62.0878 36.5883 62.7578 36.6007 53.1313 36.6007C52.7462 36.6007 52.3301 36.6628 51.9738 36.8186L40.2755 41.9409L31.5004 19.8908C30.9989 18.6306 29.8978 17.7209 28.5753 17.7223V17.7209C28.5753 17.7209 16.1299 17.7209 11.9391 17.7209C10.4037 17.7209 8.92829 18.5094 8.39697 20.0262L0.205024 43.4091C-0.39267 45.1148 0.350147 47.0506 1.99434 47.8015C2.46787 48.0176 2.95941 48.1184 3.44047 48.1184C4.87128 48.1184 6.21045 47.2251 6.71032 45.7983L10.7625 34.2322V36.6211L5.60684 54.1429C5.46682 55.1727 5.97422 56.2173 6.96428 56.7274C7.32548 56.9134 7.73236 56.994 8.13871 56.994H10.8318V75.7249C10.8318 77.9635 12.5523 79.8899 14.7886 79.9953C17.1761 80.1076 19.1474 78.2051 19.1474 75.8423V58.3799C19.1474 57.6145 19.7679 56.994 20.5333 56.994C21.2987 56.994 21.9193 57.6145 21.9193 58.3799V75.7249C21.9193 77.9635 23.6398 79.8899 25.876 79.9953C28.2636 80.1076 30.2348 78.2051 30.2348 75.8423V56.994H32.9279C33.3343 56.994 33.7412 56.9134 34.1024 56.7274C35.0927 56.2173 35.6001 55.1727 35.4601 54.1429L30.3044 36.6211V35.6246L34.4071 45.934C35.2271 47.9947 37.5837 48.4702 39.6305 47.4755C42.5176 46.0724 50.3769 42.77 50.3769 42.77L47.7687 60.6081C47.5129 61.5444 47.8163 62.5625 48.5905 63.2066C49.0565 63.5944 49.6577 63.7828 50.264 63.7828H50.8141V76.7722C50.8141 78.3613 52.0574 79.7246 53.6465 79.7537C55.2654 79.7832 56.5868 78.4798 56.5868 76.8679V64.7449C56.5868 64.2136 57.0176 63.7828 57.5489 63.7828C58.0803 63.7828 58.5111 64.2136 58.5111 64.7449V76.7722C58.5111 78.3613 59.7543 79.7246 61.3434 79.7537C62.9623 79.7832 64.2837 78.4798 64.2837 76.8679V63.7828H64.8339C65.4402 63.7828 66.0413 63.5944 66.5074 63.2066C67.2813 62.5625 67.585 61.5444 67.3292 60.6081L65.9927 51.467L68.1185 55.5043C68.549 56.3224 69.3846 56.7895 70.2491 56.7895C70.6267 56.7895 71.0099 56.7003 71.3676 56.5121C72.5413 55.893 72.9925 54.4382 72.3738 53.263Z" fill="#5695CB"/>
<path d="M45.6316 33.76H49.034C49.5067 33.76 49.8961 33.3932 49.9257 32.9215C50.0396 31.1002 50.6223 29.3106 51.6537 27.7441C51.6507 27.822 51.6478 27.9 51.6478 27.9787C51.6478 31.4375 54.4516 34.2416 57.9107 34.2416C61.3694 34.2416 64.1736 31.4378 64.1736 27.9787C64.1736 27.8411 64.1676 27.7051 64.1588 27.57C65.2631 29.1771 65.8828 31.0328 66.0008 32.9215C66.0303 33.3932 66.42 33.76 66.8925 33.76H70.2951C70.5507 33.76 70.7941 33.6496 70.9637 33.4585C71.1333 33.2674 71.2134 33.0129 71.1833 32.7592C70.7186 28.8417 67.5603 25.7505 63.6124 25.388C62.6266 23.2224 60.4455 21.7158 57.9109 21.7158C55.3716 21.7158 53.1869 23.2281 52.2038 25.4001C48.3078 25.8097 45.2038 28.8785 44.7437 32.7592C44.7136 33.0129 44.7937 33.2674 44.9632 33.4585C45.1328 33.6496 45.376 33.76 45.6316 33.76Z" fill="#5695CB"/>
<path d="M20.5328 15.067C24.6934 15.067 28.0663 11.6942 28.0663 7.53352C28.0663 3.37287 24.6934 0 20.5328 0C16.3721 0 12.9993 3.37287 12.9993 7.53352C12.9993 11.6942 16.3721 15.067 20.5328 15.067Z" fill="#5695CB"/>
</svg>
