<svg width="40" height="40" fill="none" xmlns="http://www.w3.org/2000/svg"><path d="M5.015 0C2.263 0 0 2.262 0 5.015c0 2.404 1.725 4.434 3.996 4.91v20.15C1.726 30.552 0 32.582 0 34.986 0 37.738 2.262 40 5.015 40c2.416 0 4.432-1.748 4.891-4.036h20.162c.46 2.29 2.499 4.036 4.917 4.036 2.658 0 4.838-2.113 4.987-4.736a1.4 1.4 0 000-.557 5.039 5.039 0 00-4.008-4.639V9.932a5.039 5.039 0 004.008-4.638 1.4 1.4 0 000-.557C39.822 2.114 37.642 0 34.985 0c-2.404 0-4.434 1.725-4.91 3.996H9.899C9.423 1.728 7.417 0 5.015 0zm0 2.797c1.242 0 2.218.977 2.218 2.218a2.197 2.197 0 01-2.218 2.218 2.197 2.197 0 01-2.218-2.218c0-1.24.977-2.218 2.218-2.218zm29.97 0c1.242 0 2.218.977 2.218 2.218a2.197 2.197 0 01-2.218 2.218 2.197 2.197 0 01-2.218-2.218c0-1.24.977-2.218 2.218-2.218zm-4.68 3.996a5.065 5.065 0 002.862 2.887v20.64a5.068 5.068 0 00-2.847 2.847H9.66a5.051 5.051 0 00-2.867-2.862V9.695a5.05 5.05 0 002.884-2.902h20.628zM5.015 32.767c1.241 0 2.217.977 2.217 2.218a2.197 2.197 0 01-2.217 2.218 2.197 2.197 0 01-2.218-2.218c0-1.24.977-2.218 2.218-2.218zm29.97 0c1.241 0 2.217.977 2.217 2.218a2.197 2.197 0 01-2.217 2.218 2.197 2.197 0 01-2.218-2.218c0-1.241.977-2.218 2.218-2.218z" fill="#5695CB"/></svg>