<svg width="20" height="16" viewBox="0 0 20 16" fill="none" xmlns="http://www.w3.org/2000/svg">
<path opacity="0.5" d="M18.4599 0.666992H1.54008C0.691983 0.666992 0 1.35898 0 2.20708V14.1227C0 14.9708 0.691983 15.6628 1.54008 15.6628H18.4599C19.308 15.6628 20 14.9708 20 14.1227V2.20708C20 1.35898 19.308 0.666992 18.4599 0.666992ZM18.2363 1.80623L10.1055 8.75982L1.97468 1.80623H18.2363ZM18.8608 14.1227C18.8608 14.3421 18.6793 14.5235 18.4599 14.5235H1.54008C1.32068 14.5235 1.13924 14.3421 1.13924 14.1227V2.59104L9.73418 9.94125C9.7384 9.94547 9.74684 9.94969 9.75106 9.95391C9.75527 9.95813 9.76371 9.96235 9.76793 9.96657C9.78059 9.97501 9.78903 9.98345 9.80169 9.98767C9.80591 9.99189 9.81013 9.99189 9.81435 9.99611C9.83122 10.0045 9.8481 10.013 9.86498 10.0214C9.8692 10.0214 9.87342 10.0256 9.87764 10.0256C9.8903 10.0299 9.90295 10.0383 9.91983 10.0425C9.92405 10.0425 9.93249 10.0467 9.93671 10.0467C9.94937 10.051 9.96203 10.0552 9.97468 10.0552C9.9789 10.0552 9.98734 10.0594 9.99156 10.0594C10.0042 10.0636 10.0211 10.0636 10.0338 10.0678C10.038 10.0678 10.0422 10.0678 10.0464 10.0678C10.0633 10.0678 10.0844 10.0721 10.1013 10.0721C10.1181 10.0721 10.1392 10.0721 10.1561 10.0678C10.1603 10.0678 10.1646 10.0678 10.1688 10.0678C10.1814 10.0678 10.1983 10.0636 10.211 10.0594C10.2152 10.0594 10.2236 10.0552 10.2278 10.0552C10.2405 10.051 10.2532 10.0467 10.2658 10.0467C10.27 10.0467 10.2785 10.0425 10.2827 10.0425C10.2954 10.0383 10.308 10.0341 10.3249 10.0256C10.3291 10.0256 10.3333 10.0214 10.3376 10.0214C10.3544 10.013 10.3713 10.0045 10.3882 9.99611C10.3924 9.99189 10.3966 9.99189 10.4008 9.98767C10.4135 9.97923 10.4219 9.97501 10.4346 9.96657C10.4388 9.96235 10.4473 9.95813 10.4515 9.95391C10.4557 9.94969 10.4641 9.94547 10.4684 9.94125L18.8608 2.77248V14.1227Z" fill="#262728"/>
</svg>
