<svg width="16" height="20" viewBox="0 0 16 20" fill="none" xmlns="http://www.w3.org/2000/svg">
<path opacity="0.5" fill-rule="evenodd" clip-rule="evenodd" d="M0.667969 7.66802C0.667969 3.43617 4.08041 0 8.29673 0C12.5131 0 15.9255 3.43617 15.9255 7.66802C15.9255 9.70592 14.6575 12.3187 12.3327 15.4514L12.329 15.4564L11.7698 16.1934C11.0896 17.0716 10.3259 17.9951 9.47931 18.9638L9.47656 18.967L8.73584 19.8025C8.62493 19.9276 8.46592 19.9994 8.29874 20C8.13155 20.0006 7.97206 19.9298 7.8603 19.8055C6.71071 18.5265 5.69816 17.3224 4.82364 16.1934L4.82003 16.1887L4.26078 15.4514C1.9359 12.3187 0.667969 9.70592 0.667969 7.66802ZM8.29673 1.17366C4.73475 1.17366 1.84162 4.0782 1.84162 7.66802C1.84162 9.29389 2.89126 11.6361 5.20141 14.7495L5.75331 15.477C6.49506 16.4345 7.34224 17.4521 8.29547 18.53L8.59558 18.1915C8.59605 18.191 8.59651 18.1905 8.59698 18.1899C9.4294 17.2374 10.177 16.3331 10.8401 15.477L11.3921 14.7495C13.7022 11.6361 14.7518 9.29389 14.7518 7.66802C14.7518 4.0782 11.8587 1.17366 8.29673 1.17366ZM8.29673 5.28145C7.00035 5.28145 5.94942 6.33238 5.94942 7.62876C5.94942 8.92515 7.00035 9.97607 8.29673 9.97607C9.59312 9.97607 10.644 8.92515 10.644 7.62876C10.644 6.33238 9.59312 5.28145 8.29673 5.28145ZM4.77576 7.62876C4.77576 5.68419 6.35215 4.1078 8.29673 4.1078C10.2413 4.1078 11.8177 5.68419 11.8177 7.62876C11.8177 9.57334 10.2413 11.1497 8.29673 11.1497C6.35215 11.1497 4.77576 9.57334 4.77576 7.62876Z" fill="#262728"/>
</svg>
