<svg width="20" height="20" viewBox="0 0 20 20" fill="none" xmlns="http://www.w3.org/2000/svg">
<path opacity="0.5" d="M19.5514 15.7831L16.4629 12.6941C15.8477 12.0814 14.8288 12.1002 14.1922 12.7368L12.6362 14.2928C12.538 14.2384 12.4362 14.1818 12.3292 14.1218C11.3467 13.5773 10.0017 12.8311 8.58633 11.4148C7.16702 9.99556 6.4198 8.64841 5.87388 7.66516C5.81593 7.56091 5.76084 7.46061 5.70645 7.36524L6.75081 6.32226L7.26416 5.80822C7.9019 5.17048 7.91957 4.15188 7.30552 3.53754L4.21685 0.448178C3.6032 -0.16547 2.58391 -0.146811 1.94617 0.490924L1.07566 1.36638L1.09964 1.39007C0.807826 1.76245 0.56369 2.19208 0.382439 2.65528C0.215009 3.09616 0.11076 3.51701 0.0630774 3.93845C-0.344639 7.31963 1.20034 10.4096 5.3934 14.603C11.1894 20.3986 15.8605 19.9609 16.0619 19.9394C16.5011 19.8871 16.9214 19.7821 17.349 19.6161C17.8082 19.4366 18.2376 19.1932 18.6095 18.902L18.6286 18.9186L19.5105 18.0551C20.1468 17.4175 20.1652 16.3989 19.5514 15.7831ZM18.8244 17.3684L18.4357 17.7564L18.2809 17.9052C18.0372 18.1408 17.6152 18.4718 16.9991 18.7128C16.6493 18.8474 16.3045 18.9339 15.9537 18.9757C15.9095 18.9799 11.5162 19.3548 6.07872 13.9177C1.45543 9.29464 0.714535 6.63066 1.02511 4.0505C1.06401 3.70853 1.14979 3.36439 1.28692 3.00475C1.52997 2.38508 1.86068 1.96354 2.09455 1.7194L2.63189 1.17674C2.89083 0.917102 3.2947 0.897259 3.53143 1.13399L6.62001 4.22257C6.85634 4.4596 6.83769 4.86346 6.57835 5.12389L4.49248 7.20768L4.68498 7.53169C4.792 7.71225 4.90513 7.91462 5.02596 8.13447C5.59973 9.16926 6.38476 10.5857 7.90081 12.1004C9.41291 13.6133 10.8273 14.3976 11.8589 14.9699C12.0818 15.0932 12.2854 15.2066 12.468 15.3154L12.7927 15.5079L14.8772 13.4227C15.1372 13.1638 15.5425 13.1446 15.7792 13.3807L18.8664 16.4686C19.1024 16.7052 19.0837 17.1091 18.8244 17.3684Z" fill="#262728"/>
</svg>
